M48
METRIC,LZ,000.000
;FILE_FORMAT=3:3
;TYPE=PLATED
;Layer: PTH_Through
;EasyEDA v6.5.54, 2026-04-14 17:33:26
;4a2cae4e023349c9b4bdc5c32db30935,3090126e5f864aa2a690680aed5fcd34,10
;Gerber Generator version 0.2
;Holesize 1 = 0.305 mm
T01C0.305
;Holesize 2 = 0.762 mm
T02C0.762
;Holesize 3 = 0.915 mm
T03C0.915
;Holesize 4 = 1.000 mm
T04C1.000
;Holesize 5 = 1.250 mm
T05C1.250
;Holesize 6 = 1.400 mm
T06C1.400
;Holesize 7 = 1.800 mm
T07C1.800
%
G05
G90
T01
X107149Y098833
X081706Y095935
X021492Y069559
X031489Y067146
T02
X014094Y066040G85X014100Y066040
X014094Y063500G85X014100Y063500
X014094Y060960G85X014100Y060960
X014094Y058420G85X014100Y058420
X014094Y055880G85X014100Y055880
X014094Y053340G85X014100Y053340
T03
X095250Y095123
T04
X016510Y072390
X019050Y072390
X021590Y072390
X024130Y072390
X026670Y072390
X029210Y072390
X031750Y072390
X034290Y072390
X036830Y072390
X039370Y072390
X041910Y072390
X044450Y072390
X046990Y072390
X049530Y072390
X052070Y072390
X054610Y072390
X057150Y072390
X059690Y072390
X062230Y072390
X016510Y097790
X019050Y097790
X021590Y097790
X024130Y097790
X026670Y097790
X029210Y097790
X031750Y097790
X034290Y097790
X036830Y097790
X039370Y097790
X041910Y097790
X044450Y097790
X046990Y097790
X049530Y097790
X052070Y097790
X054610Y097790
X057150Y097790
X059690Y097790
X062230Y097790
T05
X042291Y065786
X042291Y063246
X042291Y060706
X042291Y058166
X042291Y055626
X042291Y053086
X052791Y053086
X052791Y055626
X052791Y058166
X052791Y060706
X052791Y063246
X052791Y065786
T06
X113157Y088940
X113157Y093940
X113157Y076240
X113157Y081240
X113030Y068540
X113030Y063540
X113030Y055840
X113030Y050840
T07
X108366Y031016
X108366Y043516
X113446Y043516
X113446Y031016
M30
