G04 Layer: TopSolderMaskLayer*
G04 EasyEDA v6.5.54, 2026-04-14 17:33:26*
G04 4a2cae4e023349c9b4bdc5c32db30935,3090126e5f864aa2a690680aed5fcd34,10*
G04 Gerber Generator version 0.2*
G04 Scale: 100 percent, Rotated: No, Reflected: No *
G04 Dimensions in millimeters *
G04 leading zeros omitted , absolute positions ,4 integer and 5 decimal *
%FSLAX45Y45*%
%MOMM*%

%ADD10C,1.6000*%
%ADD11C,2.0200*%
%ADD12C,1.7272*%
%ADD13C,2.3000*%
%ADD14C,4.0000*%
%ADD15C,1.6256*%
%ADD16C,0.0117*%

%LPD*%
D10*
G01*
X1651000Y7239000D03*
G01*
X1905000Y7239000D03*
G01*
X2159000Y7239000D03*
G01*
X2413000Y7239000D03*
G01*
X2667000Y7239000D03*
G01*
X2921000Y7239000D03*
G01*
X3175000Y7239000D03*
G01*
X3429000Y7239000D03*
G01*
X3683000Y7239000D03*
G01*
X3937000Y7239000D03*
G01*
X4191000Y7239000D03*
G01*
X4445000Y7239000D03*
G01*
X4699000Y7239000D03*
G01*
X4953000Y7239000D03*
G01*
X5207000Y7239000D03*
G01*
X5461000Y7239000D03*
G01*
X5715000Y7239000D03*
G01*
X5969000Y7239000D03*
G01*
X6223000Y7239000D03*
G01*
X1651000Y9779000D03*
G01*
X1905000Y9779000D03*
G01*
X2159000Y9779000D03*
G01*
X2413000Y9779000D03*
G01*
X2667000Y9779000D03*
G01*
X2921000Y9779000D03*
G01*
X3175000Y9779000D03*
G01*
X3429000Y9779000D03*
G01*
X3683000Y9779000D03*
G01*
X3937000Y9779000D03*
G01*
X4191000Y9779000D03*
G01*
X4445000Y9779000D03*
G01*
X4699000Y9779000D03*
G01*
X4953000Y9779000D03*
G01*
X5207000Y9779000D03*
G01*
X5461000Y9779000D03*
G01*
X5715000Y9779000D03*
G01*
X5969000Y9779000D03*
G01*
X6223000Y9779000D03*
D11*
G01*
X4229100Y6578600D03*
G01*
X4229100Y6324600D03*
G01*
X4229100Y6070600D03*
G01*
X4229100Y5816600D03*
G01*
X4229100Y5562600D03*
G01*
X4229100Y5308600D03*
G01*
X5279110Y5308600D03*
G01*
X5279110Y5562600D03*
G01*
X5279110Y5816600D03*
G01*
X5279110Y6070600D03*
G01*
X5279110Y6324600D03*
G01*
X5279110Y6578600D03*
D12*
G01*
X1409700Y6604000D03*
G01*
X1409700Y6350000D03*
G01*
X1409700Y6096000D03*
G01*
X1409700Y5842000D03*
G01*
X1409700Y5588000D03*
G01*
X1409700Y5334000D03*
D13*
G01*
X11315700Y8893987D03*
G01*
X11315700Y9393986D03*
G01*
X11315700Y7623987D03*
G01*
X11315700Y8123986D03*
G01*
X11303000Y6854012D03*
G01*
X11303000Y6354013D03*
G01*
X11303000Y5584012D03*
G01*
X11303000Y5084013D03*
D14*
G01*
X10836605Y3101619D03*
G01*
X10836605Y4351604D03*
G01*
X11344605Y4351604D03*
G01*
X11344605Y3101619D03*
D15*
G01*
X9525000Y9512300D03*
M02*
