G04 Layer: BottomLayer*
G04 EasyEDA v6.5.54, 2026-04-14 17:33:26*
G04 4a2cae4e023349c9b4bdc5c32db30935,3090126e5f864aa2a690680aed5fcd34,10*
G04 Gerber Generator version 0.2*
G04 Scale: 100 percent, Rotated: No, Reflected: No *
G04 Dimensions in millimeters *
G04 leading zeros omitted , absolute positions ,4 integer and 5 decimal *
%FSLAX45Y45*%
%MOMM*%

%ADD10C,0.2540*%
%ADD11C,1.5000*%
%ADD12C,2.0000*%
%ADD13C,1.5240*%
%ADD14C,2.2000*%
%ADD15C,0.0166*%
%ADD16C,4.0000*%
%ADD17C,0.6096*%

%LPD*%
D10*
X1409700Y5842000D02*
G01*
X2276322Y5842000D01*
X3148939Y6714617D01*
X4229100Y6070600D02*
G01*
X3343833Y6955866D01*
X2149220Y6955866D01*
X1409700Y6604000D02*
G01*
X1409700Y6499834D01*
X1409700Y6499834D02*
G01*
X1255268Y6345402D01*
X1255268Y5594807D01*
X1389075Y5461000D01*
X3861257Y5461000D01*
X4157497Y5164759D01*
X4373270Y5164759D01*
X5279110Y6070600D01*
X5279110Y6070600D02*
G01*
X6223000Y7014489D01*
X6223000Y7239000D01*
X1409700Y6096000D02*
G01*
X2032000Y6718300D01*
X2032000Y7874000D01*
X3937000Y9779000D01*
X4229100Y6578600D02*
G01*
X4318000Y6667500D01*
X4318000Y9398000D01*
X4699000Y9779000D01*
X8170595Y9593478D02*
G01*
X8170595Y8216417D01*
X11303000Y5084013D01*
X11303000Y5584012D02*
G01*
X10714863Y6172149D01*
X10714863Y9883267D01*
X11344605Y3101619D02*
G01*
X11574830Y3331845D01*
X11574830Y6582181D01*
X11303000Y6854012D01*
X11315700Y9393986D02*
G01*
X11315700Y8893987D01*
X1409700Y6350000D02*
G01*
X1304188Y6244488D01*
X1304188Y5783554D01*
X1355597Y5732145D01*
X4144645Y5732145D01*
X4229100Y5816600D01*
X4229100Y5816600D02*
G01*
X4953000Y6540500D01*
X4953000Y7239000D01*
X4953000Y7239000D02*
G01*
X7372629Y9658629D01*
X9378670Y9658629D01*
X9525000Y9512300D01*
D11*
G01*
X1651000Y7239000D03*
G01*
X1905000Y7239000D03*
G01*
X2159000Y7239000D03*
G01*
X2413000Y7239000D03*
G01*
X2667000Y7239000D03*
G01*
X2921000Y7239000D03*
G01*
X3175000Y7239000D03*
G01*
X3429000Y7239000D03*
G01*
X3683000Y7239000D03*
G01*
X3937000Y7239000D03*
G01*
X4191000Y7239000D03*
G01*
X4445000Y7239000D03*
G01*
X4699000Y7239000D03*
G01*
X4953000Y7239000D03*
G01*
X5207000Y7239000D03*
G01*
X5461000Y7239000D03*
G01*
X5715000Y7239000D03*
G01*
X5969000Y7239000D03*
G01*
X6223000Y7239000D03*
G01*
X1651000Y9779000D03*
G01*
X1905000Y9779000D03*
G01*
X2159000Y9779000D03*
G01*
X2413000Y9779000D03*
G01*
X2667000Y9779000D03*
G01*
X2921000Y9779000D03*
G01*
X3175000Y9779000D03*
G01*
X3429000Y9779000D03*
G01*
X3683000Y9779000D03*
G01*
X3937000Y9779000D03*
G01*
X4191000Y9779000D03*
G01*
X4445000Y9779000D03*
G01*
X4699000Y9779000D03*
G01*
X4953000Y9779000D03*
G01*
X5207000Y9779000D03*
G01*
X5461000Y9779000D03*
G01*
X5715000Y9779000D03*
G01*
X5969000Y9779000D03*
G01*
X6223000Y9779000D03*
D12*
G01*
X4229100Y6578600D03*
G01*
X4229100Y6324600D03*
G01*
X4229100Y6070600D03*
G01*
X4229100Y5816600D03*
G01*
X4229100Y5562600D03*
G01*
X4229100Y5308600D03*
G01*
X5279110Y5308600D03*
G01*
X5279110Y5562600D03*
G01*
X5279110Y5816600D03*
G01*
X5279110Y6070600D03*
G01*
X5279110Y6324600D03*
G01*
X5279110Y6578600D03*
D13*
G01*
X1409700Y6604000D03*
G01*
X1409700Y6350000D03*
G01*
X1409700Y6096000D03*
G01*
X1409700Y5842000D03*
G01*
X1409700Y5588000D03*
G01*
X1409700Y5334000D03*
D14*
G01*
X11315700Y8893987D03*
G01*
X11315700Y9393986D03*
G01*
X11315700Y7623987D03*
G01*
X11315700Y8123986D03*
G01*
X11303000Y6854012D03*
G01*
X11303000Y6354013D03*
G01*
X11303000Y5584012D03*
G01*
X11303000Y5084013D03*
D16*
G01*
X10836605Y3101619D03*
G01*
X10836605Y4351604D03*
G01*
X11344605Y4351604D03*
G01*
X11344605Y3101619D03*
D13*
G01*
X9525000Y9512300D03*
D17*
G01*
X10714863Y9883267D03*
G01*
X8170595Y9593478D03*
G01*
X2149220Y6955866D03*
G01*
X3148939Y6714617D03*
M02*
